<?xml version="1.0" standalone="no"?><!DOCTYPE svg PUBLIC "-//W3C//DTD SVG 1.1//EN" "http://www.w3.org/Graphics/SVG/1.1/DTD/svg11.dtd"><svg t="1712827047715" class="icon" viewBox="0 0 1024 1024" version="1.1" xmlns="http://www.w3.org/2000/svg" p-id="13084" xmlns:xlink="http://www.w3.org/1999/xlink" width="200" height="200"><path d="M517.36487 286.297043m-108.210087 0a108.210087 108.210087 0 1 0 216.420174 0 108.210087 108.210087 0 1 0-216.420174 0Z" fill="#2285ED" p-id="13085"></path><path d="M338.142609 458.752m-71.012174 0a71.012174 71.012174 0 1 0 142.024348 0 71.012174 71.012174 0 1 0-142.024348 0Z" fill="#05CCFD" p-id="13086"></path><path d="M513.981217 634.568348m-77.779478 0a77.779478 77.779478 0 1 0 155.558957 0 77.779478 77.779478 0 1 0-155.558957 0Z" fill="#02C7CC" p-id="13087"></path><path d="M686.413913 807.023304m-47.34887 0a47.34887 47.34887 0 1 0 94.69774 0 47.34887 47.34887 0 1 0-94.69774 0Z" fill="#9F6DFF" p-id="13088"></path></svg>