<?xml version="1.0" standalone="no"?><!DOCTYPE svg PUBLIC "-//W3C//DTD SVG 1.1//EN" "http://www.w3.org/Graphics/SVG/1.1/DTD/svg11.dtd"><svg t="1712826999415" class="icon" viewBox="0 0 1024 1024" version="1.1" xmlns="http://www.w3.org/2000/svg" p-id="6828" xmlns:xlink="http://www.w3.org/1999/xlink" width="200" height="200"><path d="M753.322667 483.584a54.357333 54.357333 0 0 1 52.138666-13.994667c9.130667 2.432 17.493333 7.253333 24.234667 13.909334 6.784 6.698667 11.690667 15.061333 14.293333 24.277333 1.024 3.626667 1.621333 7.338667 1.792 11.093333a167.68 167.68 0 0 0 45.781334 85.888l3.754666 3.626667c0.64 0.426667 1.28 0.981333 1.834667 1.493333l0.896 1.024a13.056 13.056 0 0 1-10.069333 21.290667 13.056 13.056 0 0 1-9.173334-3.84 166.656 166.656 0 0 0-92.8-51.968l-3.328-0.426667a53.888 53.888 0 0 1-41.088-32.938666 54.869333 54.869333 0 0 1 11.733334-59.434667z" fill="#34BE0A" p-id="6829"></path><path d="M687.061333 727.552c5.034667-5.077333 13.226667-5.077333 18.346667 0a166.698667 166.698667 0 0 0 92.757333 52.010667v-0.085334l3.370667 0.469334 3.157333 0.682666c9.429333 2.133333 18.133333 6.741333 25.173334 13.44a54.442667 54.442667 0 0 1 15.189333 53.333334 54.570667 54.570667 0 0 1-38.4 38.954666 53.845333 53.845333 0 0 1-52.224-13.909333 55.253333 55.253333 0 0 1-14.250667-24.32 57.002667 57.002667 0 0 1-1.792-11.050667 167.893333 167.893333 0 0 0-45.824-85.888l-3.712-3.669333a13.056 13.056 0 0 1-1.792-19.968z" fill="#FC6C0D" p-id="6830"></path><path d="M906.026667 641.664a54.186667 54.186667 0 0 1 91.178666 25.856 55.04 55.04 0 0 1-17.493333 54.272 53.461333 53.461333 0 0 1-32 12.8 166.4 166.4 0 0 0-91.605333 52.608 12.885333 12.885333 0 0 1-17.322667-0.938667 13.013333 13.013333 0 0 1 0-18.474666 171.178667 171.178667 0 0 0 51.712-93.354667l0.384-3.285333a54.186667 54.186667 0 0 1 15.061333-29.525334h0.085334z" fill="#0082EF" p-id="6831"></path><path d="M728.234667 568.576a12.8 12.8 0 0 1 18.261333 0.938667 13.184 13.184 0 0 1-0.938667 18.474666 167.893333 167.893333 0 0 0-52.138666 96.64l-0.597334 3.242667a55.253333 55.253333 0 0 1-13.653333 25.258667 54.314667 54.314667 0 0 1-52.778667 15.232 54.272 54.272 0 0 1-38.869333-38.570667 54.869333 54.869333 0 0 1 13.909333-52.736 53.461333 53.461333 0 0 1 35.2-15.872 166.4 166.4 0 0 0 85.461334-46.037333l3.626666-3.797334a16.213333 16.213333 0 0 1 2.56-2.773333z" fill="#FFCB39" p-id="6832"></path><path d="M450.133333 97.109333c16.682667 0 33.92 0.981333 51.328 2.986667 96.981333 11.093333 185.045333 53.248 248.021334 118.656a334.250667 334.250667 0 0 1 60.202666 85.973333 300.8 300.8 0 0 1 29.610667 155.093334 53.973333 53.973333 0 0 0-69.12-10.752c0.256-3.754667 0.426667-7.466667 0.426667-11.136a236.8 236.8 0 0 0-24.064-103.978667 268.202667 268.202667 0 0 0-48.298667-68.906667c-51.754667-53.76-124.586667-88.448-205.098667-97.664a382.848 382.848 0 0 0-84.138666-0.213333c-80.896 8.874667-154.197333 43.392-206.250667 97.194667a269.44 269.44 0 0 0-48.64 68.778666 237.056 237.056 0 0 0-24.448 104.789334c0 46.634667 14.250667 92.842667 41.173333 133.546666 11.392 17.28 25.045333 33.450667 40.533334 48.256 9.045333 8.618667 18.602667 16.64 28.629333 24.149334a28.970667 28.970667 0 0 1 10.325333 32.213333l-5.546666 21.333333c-1.706667 6.741333-3.498667 13.397333-4.992 19.114667l-2.986667 11.648-2.645333 10.709333c0 2.602667 2.005333 4.778667 4.437333 4.778667 0.853333 0 1.706667-0.341333 3.157333-1.194667h0.085334l2.986666-1.792 68.437334-40.618666c0.768-0.426667 1.621333-0.768 2.346666-1.237334a38.272 38.272 0 0 1 29.696-3.029333c17.92 5.290667 36.437333 9.130667 55.168 11.648 2.901333 0.384 5.674667 0.853333 8.533334 1.109333 27.946667 3.072 56.192 2.986667 84.138666-0.213333a367.786667 367.786667 0 0 0 69.717334-14.976c-1.194667 12.330667 1.792 24.746667 8.490666 35.072 6.698667 10.410667 16.725333 18.133333 28.373334 21.930667-31.786667 11.52-64.768 19.285333-98.304 23.125333-17.066667 1.962667-34.133333 2.986667-51.285334 2.986667a455.722667 455.722667 0 0 1-121.984-16.810667l-83.328 42.026667-27.946666 14.122666-1.962667 1.152-0.426667 0.213334a29.44 29.44 0 0 1-39.552-9.088 30.293333 30.293333 0 0 1-4.992-13.952c-0.042667-1.024-0.341333-2.005333-0.341333-2.986667 0-1.066667 0.298667-1.962667 0.341333-2.858667 0.128-1.28 0.170667-2.56 0.426667-3.712a24.021333 24.021333 0 0 1 1.28-3.84l11.776-92.586666a467.584 467.584 0 0 1-71.424-82.005334 306.816 306.816 0 0 1-51.968-169.386666c0-46.165333 10.453333-91.008 31.061333-133.205334a335.658667 335.658667 0 0 1 60.586667-85.717333C215.04 152.490667 303.616 110.506667 401.024 99.925333a433.92 433.92 0 0 1 49.152-2.816h-0.042667z" fill="#2985DD" p-id="6833"></path></svg>