<?xml version="1.0" standalone="no"?><!DOCTYPE svg PUBLIC "-//W3C//DTD SVG 1.1//EN" "http://www.w3.org/Graphics/SVG/1.1/DTD/svg11.dtd"><svg t="1704792318591" class="icon" viewBox="0 0 1024 1024" version="1.1" xmlns="http://www.w3.org/2000/svg" p-id="19489" width="64" height="64" xmlns:xlink="http://www.w3.org/1999/xlink"><path d="M524.8 617.6h16v-64h-16c-57.6 0-102.4-44.8-102.4-102.4v-12.8c0-57.6 44.8-102.4 102.4-102.4h204.8c57.6 0 102.4 44.8 102.4 102.4v12.8c0 54.4-44.8 102.4-102.4 102.4v64c89.6 0 166.4-73.6 166.4-166.4v-12.8c0-92.8-73.6-166.4-166.4-166.4h-204.8c-92.8 0-166.4 73.6-166.4 166.4v12.8c0 92.8 73.6 166.4 166.4 166.4z" fill="#999999" p-id="19490"></path><path d="M294.4 748.8h204.8c92.8 0 166.4-73.6 166.4-166.4v-12.8c0-92.8-73.6-166.4-166.4-166.4h-16v64h16c57.6 0 102.4 44.8 102.4 102.4v12.8c0 57.6-44.8 102.4-102.4 102.4H294.4C236.8 684.8 192 640 192 582.4v-12.8c0-54.4 44.8-102.4 102.4-102.4v-64C201.6 406.4 128 480 128 569.6v12.8c0 92.8 73.6 166.4 166.4 166.4z" fill="#999999" p-id="19491"></path></svg>