<svg xmlns="http://www.w3.org/2000/svg" xmlns:xlink="http://www.w3.org/1999/xlink" viewBox="0 0 152.43 153.73"><defs><style>.cls-1{fill:none;}.cls-2{fill:#f7f9fb;}.cls-3{fill:#d7d8e1;}.cls-4{fill:#fff;}.cls-5{fill:#cbcdd8;}.cls-6{clip-path:url(#clip-path);}.cls-7{fill:#caccd7;}</style><clipPath id="clip-path" transform="translate(0 -0.53)"><circle class="cls-1" cx="76.12" cy="75.21" r="75.21"/></clipPath></defs><title>资源 2</title><g id="图层_2" data-name="图层 2"><g id="图层_1-2" data-name="图层 1"><g id="椭圆_1_拷贝" data-name="椭圆 1 拷贝"><circle class="cls-2" cx="76.21" cy="76.21" r="75.21"/><path class="cls-3" d="M76.21,153a76.21,76.21,0,1,1,76.21-76.21A76.3,76.3,0,0,1,76.21,153Zm0-150.43a74.21,74.21,0,1,0,74.21,74.21A74.3,74.3,0,0,0,76.21,2.53Z" transform="translate(0 -0.53)"/></g><g id="椭圆_562" data-name="椭圆 562"><circle class="cls-4" cx="76.11" cy="63.17" r="30.09"/><path class="cls-5" d="M76.11,94.78A31.09,31.09,0,1,1,107.2,63.7,31.12,31.12,0,0,1,76.11,94.78Zm0-60.17A29.09,29.09,0,1,0,105.2,63.7,29.12,29.12,0,0,0,76.11,34.61Z" transform="translate(0 -0.53)"/></g><g class="cls-6"><g id="椭圆_562-2" data-name="椭圆 562"><path class="cls-4" d="M76.11,94.25c24.49,0,45.58,13.88,55.07,33.83,3.44,7.24-7.54,11.34-10.68,13-2.94,1.58-23.45,12.69-44.39,12.1-24.56-.69-29.39-4.07-44.31-13.19-4.5-2.75-14.17-4.81-10.68-12.09C30.64,108.06,51.68,94.25,76.11,94.25Z" transform="translate(0 -0.53)"/><path class="cls-5" d="M77.73,154.25l-1.64,0c-24.13-.67-29.42-3.91-43.55-12.56l-1.27-.77a35.07,35.07,0,0,0-3.32-1.68c-3.34-1.55-7.13-3.31-8.26-6.47a6.68,6.68,0,0,1,.51-5.25c10-20.82,31.92-34.27,55.92-34.27s46,13.51,56,34.42c3.46,7.28-5.45,11.6-9.73,13.67-.55.27-1,.5-1.39.69C114,145.77,96.15,154.25,77.73,154.25Zm-1.61-59c-23.21,0-44.44,13-54.07,33.1a4.67,4.67,0,0,0-.43,3.68c.85,2.36,4.22,3.92,7.2,5.31a36.24,36.24,0,0,1,3.53,1.79l1.27.77c13.8,8.44,19,11.6,42.54,12.26,18.49.5,36.79-8.18,43.8-11.94.46-.25,1-.49,1.54-.77,5.9-2.86,11-6.16,8.77-10.95C120.65,108.32,99.4,95.27,76.11,95.27Z" transform="translate(0 -0.53)"/></g></g><path class="cls-7" d="M46.19,62.23h-.06v-2A73.26,73.26,0,0,0,80.91,49.59c7.29-4.49,11.15-.59,15.23,3.53,2.72,2.75,5.8,5.87,10.43,7.14L106,62.19c-5.14-1.41-8.42-4.73-11.32-7.66C90.61,50.38,87.9,47.64,82,51.3A73.82,73.82,0,0,1,46.19,62.23Z" transform="translate(0 -0.53)"/><path class="cls-7" d="M80.84,112.61H71.49A4.58,4.58,0,0,1,66.92,108v-2.23a4.58,4.58,0,0,1,4.57-4.57h9.35a4.58,4.58,0,0,1,4.57,4.57V108A4.58,4.58,0,0,1,80.84,112.61Zm-9.35-9.44a2.64,2.64,0,0,0-2.64,2.64V108a2.64,2.64,0,0,0,2.64,2.64h9.35A2.64,2.64,0,0,0,83.48,108v-2.23a2.64,2.64,0,0,0-2.64-2.64Z" transform="translate(0 -0.53)"/><polygon class="cls-7" points="76.11 140.77 66.28 132.88 71.43 110.89 73.38 111.34 68.52 132.11 76.13 138.22 83.91 132.1 79.05 111.34 81 110.89 86.15 132.88 76.11 140.77"/></g></g></svg>